# xmcd CD database file
#
# Track frame offsets:
#	150
#	22835
#	45762
#	62425
#	85550
#	105435
#	129395
#	144920
#	162312
#	190942
#
# Disc length: 2736 seconds
#
# Revision: 0
# Processed by: cddbd v1.5.2PL0 Copyright (c) Steve Scherf et al.
# Submitted via: CDex 1.70beta2
#
DISCID=680aae0a
DTITLE=スズキ清勝 - Living The Blues On A Hammond Organ
DYEAR=1999
DGENRE=Blues
TTITLE0=Riders In The Sky
TTITLE1=Georgia On My Mind
TTITLE2=5-10-15 Hour
TTITLE3=Take It Easy
TTITLE4=Battle Hymn Of The Republic
TTITLE5=Amazing Grace
TTITLE6=Bring It Home To Me
TTITLE7=Deep River
TTITLE8=心のMy Home Town
TTITLE9=Too Heavy Blues
EXTD=YEAR: 1999
EXTT0=
EXTT1=
EXTT2=
EXTT3=
EXTT4=
EXTT5=
EXTT6=
EXTT7=
EXTT8=
EXTT9=
PLAYORDER=
